<svg xmlns="http://www.w3.org/2000/svg" viewBox="0 0 270 240"><defs><style>.cls-1{isolation:isolate;}.cls-2,.cls-7{fill:#231f20;}.cls-2{opacity:0.1;mix-blend-mode:multiply;}.cls-3{fill:#242019;}.cls-4{fill:#998776;}.cls-5{fill:#5c5542;}.cls-6{fill:#3f3b30;}.cls-8{fill:#fff;}.cls-9{fill:#64584e;}.cls-10{fill:#412312;}.cls-11,.cls-12,.cls-13,.cls-14,.cls-15{fill:none;}.cls-11,.cls-12,.cls-14,.cls-15{stroke:#231f20;}.cls-11,.cls-12,.cls-13{stroke-miterlimit:10;}.cls-11{stroke-width:0.43px;}.cls-12{stroke-width:0.62px;}.cls-13{stroke:#f79421;stroke-width:2.39px;}.cls-13,.cls-14,.cls-15{stroke-linecap:round;}.cls-14,.cls-15{stroke-linejoin:round;}.cls-14{stroke-width:2.34px;}.cls-15{stroke-width:2.95px;}</style></defs><title>Artboard 29 copy 8</title><g class="cls-1"><g id="Layer_1" data-name="Layer 1"><ellipse class="cls-2" cx="128.31" cy="221.93" rx="59.61" ry="4.24"/><polygon class="cls-3" points="165.95 125.9 194.19 137.19 161.28 152.25 161.49 146.51 184.88 137.56 163.58 130.12 165.95 125.9"/><path class="cls-3" d="M162.09,153.08s12.26,20.74,27.77,2.17C189.85,155.25,166.91,158.83,162.09,153.08Z"/><path class="cls-3" d="M195.94,43.11S218,52.72,219.71,28.6C219.71,28.6,203.23,44.94,195.94,43.11Z"/><path class="cls-3" d="M199.8,44.32s7.48,42.87-40.45,64.93L157.19,105s41.65-14,38.75-61.87Z"/><polygon class="cls-3" points="82.48 125.9 54.24 137.19 87.15 152.25 86.96 146.51 63.56 137.56 84.85 130.12 82.48 125.9"/><path class="cls-3" d="M86.35,153.08s-12.26,20.74-27.76,2.17C58.59,155.25,81.52,158.83,86.35,153.08Z"/><polygon class="cls-3" points="78.53 91.8 50.29 103.09 83.2 118.15 83 112.43 59.6 103.48 80.89 96.01 78.53 91.8"/><path class="cls-3" d="M82.39,119s-12.26,20.73-27.75,2.15C54.64,121.15,77.56,124.74,82.39,119Z"/><polygon class="cls-3" points="143.37 146.86 116.18 145.83 117.16 220.68 119.49 218.27 118.9 156.99 139.87 155.64 140.45 218.27 143.37 218.27 143.37 146.86"/><path class="cls-3" d="M117.08,218.41s-2,2.54-6.86,2.54l-.13.78s6.21.4,8.09-2l-.13,1.81,2.08-.18-.65-3.27Z"/><path class="cls-3" d="M143,218.37s2,2.53,6.86,2.53l.14.8s-6.21.39-8.09-2l.13,1.8-2.08-.15.65-3.28Z"/><path class="cls-4" d="M158.81,104.83a24,24,0,0,0-2.62-5.07,33.32,33.32,0,0,1-12.46-4.85c-5.91,5.7-14.67,7.81-23.42,6.24-10.8-1.93-21.71-2.92-32.24-6a24.67,24.67,0,0,1-11.42-7.18c-1.25-.32-2.51-.63-3.77-.93a166.7,166.7,0,0,0,6.28,18.57A79.54,79.54,0,0,1,82,126.64c.14,10.45.31,21,6.36,30.39,7.84,12.14,25.78,16.81,40.89,16.31a49.8,49.8,0,0,0,14.49-2.8C184.53,156,165,119.86,158.81,104.83Z"/><path class="cls-5" d="M164.2,117.73h0c-31.22,31.87-81.87,0-81.87,0l-.71,1.22c.24,2.57.37,5.15.41,7.7.14,10.45.31,21,6.36,30.39,7.84,12.14,25.78,16.81,40.89,16.31a49.8,49.8,0,0,0,14.49-2.8C175.35,159.27,170.77,135.05,164.2,117.73Z"/><path class="cls-3" d="M129.29,173.35a49.8,49.8,0,0,0,14.49-2.8c7.81-2.79,13.4-6.37,17.3-10.43-34.22,8.49-74.73-6.75-74.74-6.75A35.49,35.49,0,0,0,88.4,157C96.23,169.17,114.18,173.84,129.29,173.35Z"/><path class="cls-6" d="M82.62,139.39c6.94,4.08,25.71,13.8,46.48,13.8a55.21,55.21,0,0,0,39.77-16c0-.55-.08-1.1-.14-1.65-31.83,32.08-76.41,8.27-86.27,2.32C82.51,138.35,82.56,138.87,82.62,139.39Z"/><path class="cls-6" d="M166.75,125.37c-.13-.46-.27-.93-.4-1.37-31.26,33.36-75.57,8.17-84.31,2.64h0c0,.5,0,1,0,1.47,6.3,3.88,24.86,14.08,45.45,14.08A52.57,52.57,0,0,0,166.75,125.37Z"/><path class="cls-7" d="M142.66,130.24l8.93,4,.2-1,1.33-7S146,129.48,142.66,130.24Z"/><polygon class="cls-7" points="149.11 131.94 147.89 153.19 155.66 157.4 159.99 150.12 151.78 131.46 149.11 131.94"/><path class="cls-4" d="M72.89,87S59.13,15,120.13,29.16s36.06,75,36.06,75H82.46Z"/><polygon class="cls-8" points="81.89 56.59 129.07 56.82 129.18 76.51 81.52 78.31 81.89 56.59"/><polygon class="cls-8" points="144.41 59.01 172.44 59.48 170.03 80.36 141.94 78 144.41 59.01"/><path class="cls-7" d="M141.87,80.3l29.37,1.32L173.78,58l-31.3.11Zm2.29-3.3.44-15.51,26.6-.11-1.79,16.77Z"/><path class="cls-7" d="M130.2,70.75s6.89-5.19,13.2.7l.56-4.88s-7.65-4.81-14.37.4Z"/><path class="cls-7" d="M132.41,55.72,78.76,54.11l.93,24.2,50.57,0Zm-49,19.13L82.7,57.71l45.6,1.36-1.5,15.82Z"/><path class="cls-9" d="M158.62,86.47c0-4.48-9.85-8.12-22-8.12S114.7,82,114.7,86.47s9.83,8.12,21.95,8.12S158.62,91,158.62,86.47Z"/><path class="cls-10" d="M160.06,84.44c0-3.35-10.16-6.08-22.67-6.08s-22.68,2.74-22.68,6.08,10.15,6.08,22.68,6.08S160.06,87.79,160.06,84.44Z"/><path class="cls-3" d="M135.35,84.44c0-1.18-3.56-2.14-8-2.14s-8,1-8,2.14,3.57,2.15,8,2.15S135.35,85.61,135.35,84.44Z"/><path class="cls-3" d="M153.61,83.77c0-.81-2.47-1.48-5.5-1.48s-5.5.67-5.5,1.48,2.46,1.47,5.5,1.47S153.61,84.59,153.61,83.77Z"/><path class="cls-11" d="M76.2,56.48c-3.1-1.15-6.65-2.3-9.75-.77-7.07,3.09-1.77,10.8,2.66,6.56-5.31-4.63-16.4,3.86-9.74,7.72"/><path class="cls-11" d="M74.87,70.38c-9.75-3.48-13.74,10.79-5.76,8.48-4.86-1.16-10.19,3.47-4,5.79"/><path class="cls-12" d="M134.3,38.73c6.9,4.2,21.63,2.22,19.89-7.52-1.35-8.58-12.63-4.88-6.23.48,6,5.3,27.25-3.31,17.28-8.43"/><path class="cls-12" d="M95.43,19.66c1.35-6.6,10-7.29,15-3.62a11,11,0,0,1,3.68,5.77c.44,2-1.65,3.54-3.21,1.87,2.05-5.57,10.72,4.33,7.2,9"/><path class="cls-12" d="M74,37.93c.22-4.65,7.82-12.39,13.64-11.5,5.35.51,7.45,7,1.78,9.19-5.15-5.55,7.85-12,13.56-4.14"/><path class="cls-13" d="M88.47,111.51s29.81-7,43.94,3.66"/><path class="cls-14" d="M165.85,67.45S158.77,80.54,150,68"/><path class="cls-15" d="M120.92,65s-11.24,13.09-25.22.55"/></g></g></svg>